<svg id="Capa_1" enable-background="new 0 0 512 512" height="512" viewBox="0 0 512 512" width="512" xmlns="http://www.w3.org/2000/svg"><g><path d="m330.71 255.471c-1.479-15.66-13.988-28.012-29.671-29.224-67.271-5.2-134.541-5.2-201.811 0-15.683 1.212-28.192 13.564-29.671 29.224-5.449 57.703-5.45 115.406-.004 173.109 1.479 15.67 13.982 28.058 29.675 29.271 15.803 1.222 31.607 2.152 47.41 2.798 8.926.365 17.082 5.148 21.754 12.762l19.459 31.715c5.623 9.165 18.94 9.165 24.563 0l19.459-31.715c4.672-7.615 12.828-12.397 21.754-12.762 15.804-.646 31.608-1.577 47.411-2.798 15.693-1.213 28.196-13.601 29.675-29.271 5.448-57.703 5.446-115.406-.003-173.109z" fill="#dd636e"/><path d="m209.246 508.769c-6.456 5.287-16.655 4.072-21.394-3.644l-19.459-31.721c-4.675-7.616-12.829-12.391-21.759-12.756-15.797-.648-31.603-1.58-47.409-2.803-15.687-1.215-28.197-13.596-29.676-29.266-5.442-57.709-5.442-115.409.009-173.109 1.479-15.66 13.989-28.014 29.667-29.229 36.671-2.831 73.351-4.118 110.022-3.862-30.599.21-61.188 1.498-91.796 3.862-15.687 1.215-28.197 13.569-29.676 29.229-5.451 57.7-5.451 115.4 0 173.109 1.479 15.669 13.98 28.051 29.676 29.266 15.797 1.223 31.603 2.155 47.409 2.803 8.921.365 17.075 5.141 21.75 12.756l19.459 31.721c.884 1.444 1.962 2.658 3.177 3.644z" fill="#c63d4f"/><g><path d="m218.74 347.615c0 25.549-30.287 50.534-56.584 63.976-7.587-3.867-15.491-8.705-22.907-14.237-18.34-13.643-33.677-31.553-33.677-49.739 0-20.258 13.825-36.709 30.964-37.003.153-.006.312-.006.471-.006 13.89 0 25.149 13.26 25.149 29.605 0-16.344 11.259-29.605 25.143-29.605 10.153 0 19.169 5.656 24.914 14.438 4.102 6.25 6.527 14.077 6.527 22.571z" fill="#dfeaef"/></g><path d="m274.682 419.317c-4.268 0-7.726-3.459-7.726-7.726v-94.64c0-4.267 3.459-7.726 7.726-7.726s7.726 3.459 7.726 7.726v94.64c0 4.267-3.458 7.726-7.726 7.726z" fill="#fff"/><g><path d="m266.991 33.124c-1.479-15.66-13.988-28.012-29.671-29.224-67.271-5.2-134.541-5.2-201.811 0-15.683 1.212-28.193 13.564-29.672 29.224-5.448 57.703-5.45 115.406-.004 173.109 1.479 15.67 13.982 28.058 29.675 29.271 15.803 1.222 31.607 2.152 47.41 2.798 8.926.365 17.082 5.148 21.754 12.762l19.459 31.715c5.623 9.165 18.94 9.165 24.563 0l19.459-31.715c4.672-7.615 12.828-12.397 21.754-12.762 15.804-.646 31.608-1.577 47.411-2.798 15.693-1.213 28.196-13.601 29.675-29.271 5.448-57.703 5.446-115.407-.002-173.109z" fill="#f4dd45"/><path d="m145.526 286.422c-6.456 5.287-16.655 4.072-21.394-3.644l-19.459-31.721c-4.675-7.616-12.829-12.391-21.759-12.756-15.797-.648-31.603-1.58-47.409-2.803-15.687-1.215-28.197-13.596-29.676-29.266-5.443-57.709-5.443-115.409.008-173.108 1.48-15.66 13.989-28.015 29.667-29.229 36.671-2.831 73.351-4.118 110.022-3.862-30.599.209-61.188 1.497-91.796 3.862-15.687 1.214-28.197 13.569-29.676 29.229-5.451 57.7-5.451 115.4 0 173.109 1.479 15.669 13.98 28.051 29.676 29.266 15.797 1.223 31.603 2.155 47.409 2.803 8.921.365 17.075 5.141 21.75 12.756l19.459 31.721c.886 1.442 1.963 2.657 3.178 3.643z" fill="#eab14d"/><g fill="#fff"><circle cx="80.86" cy="89.464" r="35.527"/><path d="m80.86 124.991c27.167 0 49.191 22.024 49.191 49.191h-98.382c0-27.167 22.024-49.191 49.191-49.191"/></g><g><path d="m181.815 181.929c-20.389 0-21.834-.482-22.894-.836-2.637-.879-4.603-2.86-5.394-5.435-1.404-4.566.554-7.131 7.044-15.628 5.508-7.212 15.761-20.637 32.933-45.172 5.325-7.61 8.759-14.478 10.208-20.419l.414-3.246c-.24-10.781-9.086-19.476-19.924-19.476-9.503 0-17.727 6.753-19.554 16.057-.822 4.188-4.882 6.914-9.07 6.093-4.187-.822-6.915-4.883-6.093-9.07 3.247-16.533 17.848-28.532 34.717-28.532 19.509 0 35.381 15.872 35.381 35.381 0 .327-.021.654-.062.979l-.534 4.181c-.033.258-.078.514-.138.766-1.845 7.958-6.114 16.755-12.686 26.147-15.235 21.769-25.095 34.9-31.048 42.723 10.664.049 26.478-.049 41.226-.235.032-.001.065-.001.099-.001 4.222 0 7.671 3.395 7.723 7.629.054 4.267-3.361 7.769-7.629 7.823-15.388.194-26.569.271-34.719.271zm-19.058-15.751" fill="#fff"/></g></g><g><path d="m506.165 151.399c-1.479-15.66-13.988-28.012-29.671-29.224-67.271-5.2-134.541-5.2-201.811 0-15.683 1.212-28.192 13.564-29.671 29.224-5.449 57.703-5.45 115.406-.004 173.109 1.479 15.67 13.982 28.058 29.675 29.271 15.803 1.222 31.607 2.152 47.41 2.798 8.926.365 17.082 5.148 21.754 12.762l19.459 31.715c5.623 9.165 18.94 9.165 24.563 0l19.459-31.715c4.672-7.615 12.828-12.397 21.754-12.762 15.804-.646 31.608-1.577 47.411-2.798 15.693-1.213 28.196-13.601 29.675-29.271 5.447-57.703 5.445-115.406-.003-173.109z" fill="#6bbef6"/><path d="m384.7 404.698c-6.456 5.287-16.655 4.072-21.394-3.644l-19.459-31.721c-4.675-7.616-12.829-12.391-21.759-12.756-15.797-.648-31.603-1.58-47.409-2.803-15.687-1.215-28.197-13.596-29.676-29.266-5.442-57.709-5.442-115.409.009-173.109 1.479-15.66 13.989-28.014 29.667-29.229 36.671-2.831 73.351-4.118 110.022-3.862-30.599.21-61.188 1.498-91.796 3.862-15.687 1.215-28.197 13.569-29.676 29.229-5.451 57.7-5.451 115.4 0 173.109 1.479 15.669 13.98 28.051 29.676 29.266 15.797 1.223 31.603 2.155 47.409 2.803 8.921.365 17.075 5.141 21.75 12.756l19.459 31.721c.885 1.443 1.962 2.658 3.177 3.644z" fill="#528ecb"/><g fill="#fff"><path d="m384.069 288.324-11.64-30.891c6.459-9.071 10.27-20.159 10.27-32.143 0-30.651-24.847-55.498-55.498-55.498-30.65 0-55.498 24.847-55.498 55.498 0 30.65 24.847 55.497 55.498 55.497 8.311 0 16.188-1.84 23.266-5.114z"/><path d="m468.988 229.058c8.128-6.488 13.351-16.47 13.351-27.655 0-19.509-15.872-35.381-35.381-35.381-16.869 0-31.47 11.999-34.717 28.532-.822 4.187 1.905 8.248 6.093 9.07 4.191.821 8.248-1.905 9.07-6.093 1.827-9.304 10.051-16.057 19.554-16.057 10.989 0 19.929 8.94 19.929 19.928s-8.94 19.929-19.929 19.929c-4.268 0-7.726 3.459-7.726 7.726s3.459 7.726 7.726 7.726c10.989 0 19.929 8.94 19.929 19.929 0 10.988-8.94 19.928-19.929 19.928-9.887 0-18.372-7.368-19.735-17.14-.128-.919-.193-1.857-.193-2.788 0-4.267-3.459-7.726-7.726-7.726s-7.726 3.459-7.726 7.726c0 1.644.115 3.302.342 4.925 2.423 17.363 17.486 30.456 35.039 30.456 19.509 0 35.381-15.872 35.381-35.381-.001-11.184-5.224-21.166-13.352-27.654z"/></g></g></g></svg>