<svg id="Capa_1" enable-background="new 0 0 512 512" height="512" viewBox="0 0 512 512" width="512" xmlns="http://www.w3.org/2000/svg"><g><g><path d="m46.431 339.191v27.56c0 18.656 15.123 33.779 33.779 33.779l175.79 25.554 25.114-47.56-25.114-39.333z" fill="#e6c17d"/><path d="m256 339.191v86.893l175.79-25.555c18.656 0 33.779-15.123 33.779-33.779v-27.56h-209.569z" fill="#d19062"/><path d="m231.175 35.478c-100.907-.886-182.695 80.198-183.581 181.106v17.557l207.603 18.877.803-.072 11.183-88.623-11.183-128.628z" fill="#e6c17d"/><path d="m464.495 220.242c.885-100.907-80.856-183.427-181.764-184.312l-26.731-.235v217.25l208.495-18.804z" fill="#d19062"/></g><g><path d="m49.796 282.138c-18.366 0-33.393 15.027-33.393 33.393 0 18.442 14.951 33.393 33.393 33.393h206.204l30-36.372-30-44.109z" fill="#955846"/></g><g><g><g><g><path d="m271 88.737h30v30h-30z" fill="#e6c17d"/></g><g><path d="m211 88.737h30v30h-30z" fill="#f0dbb6"/></g></g></g></g><g><path d="m0 400.53v33.282l42.717 42.718h213.283l25.021-38-25.021-38z" fill="#ff6a6d"/><path d="m256 400.53v76h213.282l42.718-42.718v-33.282z" fill="#ec2176"/></g><g><path d="m241 118.737v30h15l7.5-15-7.5-15z" fill="#f0dbb6"/></g><path d="m462.204 282.138-206.054-13.705-.15.01v80.481h206.204c18.442 0 33.393-14.951 33.393-33.393 0-18.366-15.027-33.393-33.393-33.393z" fill="#7a4738"/><path d="m256 118.737h15v30h-15z" fill="#e6c17d"/><path d="m47.594 234.141v47.997h208.406l25.114-23.999-25.114-23.998z" fill="#fff79f"/><path d="m256 234.141v47.997h38.019c14.707 0 26.629 11.922 26.629 26.629v15.606c0 13.559 10.991 24.55 24.55 24.55s24.551-10.992 24.551-24.55v-15.606c0-14.707 11.922-26.629 26.629-26.629h68.117v-47.997z" fill="#ffe144"/></g></svg>